<svg xmlns="http://www.w3.org/2000/svg" width="180" height="180" viewBox="0 0 180 180">
  <defs>
    <linearGradient id="mainGradApple" x1="0%" y1="0%" x2="100%" y2="100%">
      <stop offset="0%" style="stop-color:#F59E0B"/>
      <stop offset="100%" style="stop-color:#D97706"/>
    </linearGradient>
  </defs>
  <!-- Background -->
  <rect width="180" height="180" rx="40" fill="url(#mainGradApple)"/>
  <!-- Coffee Cup -->
  <ellipse cx="90" cy="110" rx="40" ry="32" fill="white"/>
  <rect x="50" y="82" width="80" height="36" rx="5" fill="white"/>
  <!-- Steam -->
  <path d="M68 72 Q72 58 68 45" stroke="white" stroke-width="5" fill="none" stroke-linecap="round"/>
  <path d="M90 68 Q94 50 90 35" stroke="white" stroke-width="5" fill="none" stroke-linecap="round"/>
  <path d="M112 72 Q116 58 112 45" stroke="white" stroke-width="5" fill="none" stroke-linecap="round"/>
  <!-- Heart in cup -->
  <path d="M90 120 C75 105 70 92 82 85 C88 82 90 88 90 88 C90 88 92 82 98 85 C110 92 105 105 90 120" fill="#D97706"/>
</svg>
