<svg xmlns="http://www.w3.org/2000/svg" width="32" height="32" viewBox="0 0 32 32">
  <defs>
    <linearGradient id="mainGradDark" x1="0%" y1="0%" x2="100%" y2="100%">
      <stop offset="0%" style="stop-color:#F59E0B"/>
      <stop offset="100%" style="stop-color:#D97706"/>
    </linearGradient>
  </defs>
  <rect width="32" height="32" rx="6" fill="url(#mainGradDark)"/>
  <ellipse cx="16" cy="21" rx="8" ry="6" fill="white"/>
  <rect x="8" y="14" width="16" height="8" rx="2" fill="white"/>
  <path d="M11 12 Q12 9 11 6" stroke="white" stroke-width="1.5" fill="none" stroke-linecap="round"/>
  <path d="M16 11 Q17 7 16 4" stroke="white" stroke-width="1.5" fill="none" stroke-linecap="round"/>
  <path d="M21 12 Q22 9 21 6" stroke="white" stroke-width="1.5" fill="none" stroke-linecap="round"/>
  <path d="M16 22 C13 19 12 17 14 15 C15 14 16 16 16 16 C16 16 17 14 18 15 C20 17 19 19 16 22" fill="#D97706"/>
</svg>
